<?xml version="1.0" encoding="utf-8"?>
<!-- Generator: Adobe Illustrator 14.0.0, SVG Export Plug-In . SVG Version: 6.00 Build 43363)  -->
<!DOCTYPE svg PUBLIC "-//W3C//DTD SVG 1.1//EN" "http://www.w3.org/Graphics/SVG/1.1/DTD/svg11.dtd">
<svg version="1.1" id="Layer_1" xmlns="http://www.w3.org/2000/svg" xmlns:xlink="http://www.w3.org/1999/xlink" x="0px" y="0px"
	 width="364.406px" height="364.406px" viewBox="0 0 364.406 364.406" enable-background="new 0 0 364.406 364.406"
	 xml:space="preserve">
<circle fill-rule="evenodd" clip-rule="evenodd" fill="#62B1BD" cx="182.203" cy="182.203" r="182.203"/>
<g>
	<defs>
		<path id="SVGID_1_" d="M113.414,134.156h151.2v39.504h-0.009l-0.081,84.607l-15.224-90.691c-1.29-4.981-6.547-4.636-6.547-4.636
			h-129.34V134.156z M123.604,102.269c-3.954,0-7.164,3.471-7.164,7.702v0.826c0,2.021-2.073,7.287-4.771,7.287h0.077
			c-3.67,0.052-6.652,3.258-6.652,7.205l0.03,37.525h-14.51c0,0-6.427-0.371-4.153,7.823l15.309,84.242
			c0,4.247,2.753,7.67,6.712,7.67h161.088c3.955,0,3.307-7.67,3.307-7.67l0.044-129.617c-0.019-3.981-3.035-7.214-6.743-7.214
			H180.87c-2.631-0.07-4.686-5.257-4.686-7.25v-0.826c0-4.222-3.217-7.702-7.186-7.702H123.604z"/>
	</defs>
	<use xlink:href="#SVGID_1_"  overflow="visible" fill="#FFFFFF"/>
	<clipPath id="SVGID_2_">
		<use xlink:href="#SVGID_1_"  overflow="visible"/>
	</clipPath>
	
		<rect x="84.188" y="102.269" clip-path="url(#SVGID_2_)" fill="#FFFFFF" stroke="#FFFFFF" stroke-width="4" width="189.337" height="160.278"/>
	<use xlink:href="#SVGID_1_"  overflow="visible" fill="none" stroke="#FFFFFF" stroke-width="4"/>
</g>
</svg>
