<?xml version="1.0" encoding="utf-8"?>
<!-- Generator: Adobe Illustrator 14.0.0, SVG Export Plug-In . SVG Version: 6.00 Build 43363)  -->
<!DOCTYPE svg PUBLIC "-//W3C//DTD SVG 1.1//EN" "http://www.w3.org/Graphics/SVG/1.1/DTD/svg11.dtd">
<svg version="1.1" xmlns="http://www.w3.org/2000/svg" xmlns:xlink="http://www.w3.org/1999/xlink" x="0px" y="0px"
	 width="1339.625px" height="305.435px" viewBox="0 0 1339.625 305.435" enable-background="new 0 0 1339.625 305.435"
	 xml:space="preserve">
<g id="Guides_For_Artboard">
</g>
<g id="Layer_1">
	<path fill-rule="evenodd" clip-rule="evenodd" fill="#1AA090" d="M302.843,193.308c18.414-68.722-22.383-139.384-91.105-157.798
		C143.016,17.095,72.354,57.892,53.94,126.614c-18.414,68.722,22.383,139.384,91.105,157.798
		C213.767,302.827,284.429,262.03,302.843,193.308L302.843,193.308z M293.56,196.448c-16.161,60.313-78.177,96.118-138.49,79.957
		c-60.313-16.161-96.118-78.177-79.957-138.49c16.161-60.313,78.177-96.118,138.49-79.957
		C273.916,74.119,309.72,136.135,293.56,196.448z"/>
	<path fill-rule="evenodd" clip-rule="evenodd" fill="#6CC5A3" d="M156.269,21.613c71.146,0,128.842,57.696,128.842,128.842
		s-57.695,128.841-128.842,128.841S27.427,221.602,27.427,150.456S85.122,21.613,156.269,21.613L156.269,21.613z M150.832,29.769
		c-62.44,0-113.076,50.636-113.076,113.076s50.636,113.076,113.076,113.076c62.441,0,113.077-50.636,113.077-113.076
		S213.273,29.769,150.832,29.769z"/>
	<path fill-rule="evenodd" clip-rule="evenodd" fill="#9FCCBE" d="M175.335,257.684c-71.146,0-128.841-57.695-128.841-128.842
		S104.189,0,175.335,0c71.146,0,128.842,57.695,128.842,128.842S246.482,257.684,175.335,257.684L175.335,257.684z M180.772,249.528
		c62.44,0,113.076-50.635,113.076-113.076c0-62.44-50.636-113.076-113.076-113.076S67.696,74.012,67.696,136.452
		C67.696,198.893,118.332,249.528,180.772,249.528z"/>
	<path fill-rule="evenodd" clip-rule="evenodd" fill="#1AA090" d="M4.42,165.012C-13.994,96.289,26.803,25.627,95.525,7.213
		c68.723-18.414,139.385,22.383,157.798,91.105c18.414,68.722-22.382,139.384-91.104,157.798S22.834,233.733,4.42,165.012
		L4.42,165.012z M13.704,168.152c16.161,60.312,78.177,96.118,138.49,79.957c60.313-16.161,96.118-78.176,79.957-138.489
		c-16.161-60.313-78.177-96.118-138.49-79.957C33.348,45.823-2.457,107.839,13.704,168.152z"/>
	<path fill-rule="evenodd" clip-rule="evenodd" fill="#3DBEB3" d="M144.771,305.434c-71.146,0-128.841-57.695-128.841-128.841
		S73.625,47.75,144.771,47.75c71.146,0,128.842,57.696,128.842,128.842S215.917,305.434,144.771,305.434L144.771,305.434z
		 M150.207,297.279c62.44,0,113.076-50.636,113.076-113.076S212.647,71.127,150.207,71.127S37.131,121.763,37.131,184.203
		S87.767,297.279,150.207,297.279z"/>
	<rect x="374.978" y="0" fill-rule="evenodd" clip-rule="evenodd" fill="#D1D3D4" width="3.1" height="305.434"/>
	<path fill-rule="evenodd" clip-rule="evenodd" fill="#4D4D4E" d="M539.829,210.771c30.867,0,46.332-19.164,46.332-57.554
		c0-37.437-15.465-56.123-46.332-56.123c-30.927,0-46.39,18.687-46.39,56.123C493.439,191.606,508.902,210.771,539.829,210.771
		L539.829,210.771z M447.107,153.753c0-62.39,30.868-93.557,92.722-93.557c61.794,0,92.661,31.167,92.661,93.557
		c0,62.271-30.867,93.438-92.661,93.438C478.215,247.191,447.347,216.024,447.107,153.753L447.107,153.753z M814.9,240.505
		c-15.165,3.521-32.06,5.253-50.748,5.253c-67.646,0-101.438-31.823-101.438-95.407c0-58.928,33.793-88.363,101.438-88.363
		c18.688,0,35.583,1.729,50.748,5.255v36.717c-15.165-3.462-30.927-5.194-47.227-5.194c-39.104,0-58.628,17.194-58.628,51.585
		c0,39.106,19.523,58.629,58.628,58.629c16.3,0,32.062-1.732,47.227-5.254V240.505L814.9,240.505z M1009.85,171.903H889.666
		c0,24.718,20.18,37.077,60.539,37.077c18.509,0,37.076-1.732,55.585-5.254v36.778c-16.181,3.521-37.076,5.253-62.568,5.253
		c-66.632,0-99.888-31.344-99.888-93.974c0-59.883,30.51-89.795,91.468-89.795C995.699,61.988,1020.656,98.646,1009.85,171.903
		L1009.85,171.903z M889.666,137.992h76.601c1.671-26.33-10.569-39.525-36.718-39.525
		C905.068,98.466,891.755,111.662,889.666,137.992L889.666,137.992z M1053.865,245.758V61.988h35.882l5.793,23.465
		c16.059-15.646,33.075-23.465,51.046-23.465v37.435c-17.253,0-32.718,7.761-46.329,23.284v123.051H1053.865L1053.865,245.758z
		 M1337.177,171.903h-120.185c0,24.718,20.18,37.077,60.539,37.077c18.51,0,37.076-1.732,55.587-5.254v36.778
		c-16.181,3.521-37.077,5.253-62.57,5.253c-66.632,0-99.888-31.344-99.888-93.974c0-59.883,30.51-89.795,91.468-89.795
		C1323.027,61.988,1347.983,98.646,1337.177,171.903L1337.177,171.903z M1216.992,137.992h76.601
		c1.671-26.33-10.568-39.525-36.718-39.525C1232.396,98.466,1219.082,111.662,1216.992,137.992z"/>
</g>
</svg>
